<svg width="31" height="29" viewBox="0 0 31 29" fill="none" xmlns="http://www.w3.org/2000/svg">
<path d="M30.2587 12.5006C30.2578 12.4892 30.2626 12.4782 30.2609 12.4668L28.8422 3.00869C28.8418 3.00615 28.8402 3.00425 28.8397 3.00173C28.8202 2.40448 28.5838 1.84039 28.1532 1.40363C27.702 0.959121 27.1085 0.714355 26.4828 0.714355C25.857 0.714355 25.2635 0.959121 24.8077 1.40847C24.4276 1.79392 24.2045 2.28545 24.1445 2.81054L13.2414 10.2247V5.91633C13.2414 5.65517 13.0299 5.44342 12.7685 5.44342H2.83744C2.57605 5.44342 2.36453 5.65517 2.36453 5.91633V8.75376V14.4286H0.472906C0.211515 14.4286 0 14.6404 0 14.9015V16.7932V21.9951C0 22.2563 0.211515 22.4681 0.472906 22.4681H3.36262C2.74776 23.0694 2.36453 23.9067 2.36453 24.8326C2.36453 26.6579 3.84975 28.1429 5.67488 28.1429H23.6453C25.4704 28.1429 26.9557 26.6579 26.9557 24.8326C26.9557 23.0072 25.4704 21.5222 23.6453 21.5222H22.6995V14.9015C22.6995 14.6404 22.488 14.4286 22.2266 14.4286H18.5749L25.4457 6.95704L27.2349 12.0641H24.3884C24.127 12.0641 23.9155 12.2759 23.9155 12.537V15.2394C23.9155 16.6177 25.0368 17.739 26.4153 17.739H27.7662C29.1447 17.739 30.266 16.6177 30.266 15.2394V12.537C30.266 12.5241 30.2597 12.5133 30.2587 12.5006ZM25.4764 2.07743C25.7494 1.80841 26.1068 1.66017 26.4828 1.66017C26.8587 1.66017 27.2161 1.80841 27.4845 2.07258C27.7532 2.34528 27.9015 2.70273 27.9015 3.07889C27.9015 3.81319 27.3307 4.43295 26.6024 4.48952C26.5885 4.49068 26.5682 4.49345 26.5543 4.49576C26.5428 4.49761 26.5312 4.49807 26.5197 4.49807C26.1272 4.50015 25.7582 4.35814 25.4811 4.0852C25.2123 3.81249 25.064 3.45504 25.064 3.07889C25.064 2.70273 25.2123 2.34528 25.4764 2.07743ZM3.31034 6.38923H12.2956V11.1183V14.4286H5.67488V8.75376C5.67488 8.4926 5.46336 8.28086 5.20197 8.28086H3.31034V6.38923ZM3.31034 9.22667H4.72906V14.4286H3.31034V9.22667ZM0.945813 21.5222V17.2661H3.45212L4.99969 21.5222H0.945813ZM23.6453 22.4681C24.949 22.4681 26.0099 23.5289 26.0099 24.8326C26.0099 26.1363 24.949 27.1971 23.6453 27.1971H5.67488C4.37115 27.1971 3.31034 26.1363 3.31034 24.8326C3.31034 23.5289 4.37115 22.4681 5.67488 22.4681H22.2266H23.6453ZM21.7537 15.3745V19.1577H12.4914L10.2654 16.9317L9.59667 17.6004L11.9612 19.965C12.0499 20.0536 12.17 20.1035 12.2956 20.1035H21.7537V21.5222H6.00597L4.22752 16.6315C4.15964 16.4447 3.9823 16.3203 3.78325 16.3203H0.945813V15.3745H2.83744H5.20197H12.7685H17.4975H21.7537ZM17.2902 14.4286H13.2414V11.3686L24.2572 3.87784C24.2629 3.89363 24.2734 3.90746 24.2794 3.92313C24.3194 4.0271 24.3718 4.12546 24.4264 4.22343C24.4519 4.26912 24.4714 4.31712 24.5 4.36128C24.5899 4.50029 24.6926 4.63269 24.8123 4.75415C24.9322 4.87229 25.0634 4.97392 25.2013 5.06299C25.2464 5.09209 25.2954 5.112 25.3421 5.13787C25.4385 5.19126 25.5351 5.2429 25.6375 5.28221C25.6529 5.28813 25.6665 5.29838 25.682 5.30395L17.2902 14.4286ZM26.1715 6.16917L26.8693 5.40924C26.9277 5.39975 26.9826 5.3811 27.0394 5.36733C27.0853 5.35622 27.1316 5.34733 27.1764 5.33356C27.2792 5.30196 27.3777 5.26187 27.474 5.21698C27.4998 5.20497 27.5274 5.1966 27.5527 5.18367C27.6717 5.1228 27.7845 5.05182 27.8908 4.97236C27.9208 4.94993 27.9469 4.92341 27.9758 4.89962C28.0339 4.8518 28.0939 4.80605 28.1472 4.75299L29.244 12.0641H28.2368L26.1715 6.16917ZM29.3202 15.2394C29.3202 16.0961 28.6228 16.7932 27.7662 16.7932H26.4153C25.5587 16.7932 24.8613 16.0961 24.8613 15.2394V13.0099H27.9015H29.3202V15.2394Z" fill="#0071BC"/>
<path d="M7.09351 13.0101H10.4039C10.6652 13.0101 10.8768 12.7983 10.8768 12.5372V8.75391C10.8768 8.49275 10.6652 8.28101 10.4039 8.28101H7.09351C6.83212 8.28101 6.62061 8.49275 6.62061 8.75391V12.5372C6.62061 12.7983 6.83212 13.0101 7.09351 13.0101ZM7.56642 9.22682H9.93095V12.0643H7.56642V9.22682Z" fill="#0071BC"/>
<path d="M4.2561 24.8325C4.2561 25.6149 4.8925 26.2513 5.67482 26.2513C6.45715 26.2513 7.09354 25.6149 7.09354 24.8325C7.09354 24.0502 6.45715 23.4138 5.67482 23.4138C4.8925 23.4138 4.2561 24.0502 4.2561 24.8325ZM6.14773 24.8325C6.14773 25.0932 5.93575 25.3054 5.67482 25.3054C5.41389 25.3054 5.20192 25.0932 5.20192 24.8325C5.20192 24.5718 5.41389 24.3596 5.67482 24.3596C5.93575 24.3596 6.14773 24.5718 6.14773 24.8325Z" fill="#0071BC"/>
<path d="M11.6651 26.2513C12.4474 26.2513 13.0838 25.6149 13.0838 24.8325C13.0838 24.0502 12.4474 23.4138 11.6651 23.4138C10.8827 23.4138 10.2463 24.0502 10.2463 24.8325C10.2463 25.6149 10.8827 26.2513 11.6651 26.2513ZM11.6651 24.3596C11.926 24.3596 12.138 24.5718 12.138 24.8325C12.138 25.0932 11.926 25.3054 11.6651 25.3054C11.4041 25.3054 11.1922 25.0932 11.1922 24.8325C11.1922 24.5718 11.4041 24.3596 11.6651 24.3596Z" fill="#0071BC"/>
<path d="M17.655 26.2513C18.4374 26.2513 19.0738 25.6149 19.0738 24.8325C19.0738 24.0502 18.4374 23.4138 17.655 23.4138C16.8727 23.4138 16.2363 24.0502 16.2363 24.8325C16.2363 25.6149 16.8727 26.2513 17.655 26.2513ZM17.655 24.3596C17.916 24.3596 18.128 24.5718 18.128 24.8325C18.128 25.0932 17.916 25.3054 17.655 25.3054C17.3941 25.3054 17.1821 25.0932 17.1821 24.8325C17.1821 24.5718 17.3941 24.3596 17.655 24.3596Z" fill="#0071BC"/>
<path d="M23.6455 26.2513C24.4279 26.2513 25.0642 25.6149 25.0642 24.8325C25.0642 24.0502 24.4279 23.4138 23.6455 23.4138C22.8632 23.4138 22.2268 24.0502 22.2268 24.8325C22.2268 25.6149 22.8632 26.2513 23.6455 26.2513ZM23.6455 24.3596C23.9065 24.3596 24.1184 24.5718 24.1184 24.8325C24.1184 25.0932 23.9065 25.3054 23.6455 25.3054C23.3846 25.3054 23.1726 25.0932 23.1726 24.8325C23.1726 24.5718 23.3846 24.3596 23.6455 24.3596Z" fill="#0071BC"/>
</svg>
