<svg width="18" height="16" viewBox="0 0 18 16" fill="none" xmlns="http://www.w3.org/2000/svg">
<path d="M8.11708 4.51364C8.55737 4.51364 8.91334 4.16818 8.91334 3.74091V2.12273C8.91334 1.79545 9.18968 1.54545 9.52692 1.54545H15.8126C16.1499 1.54545 16.4075 1.79545 16.4075 2.12273V13.8773C16.4075 14.2045 16.1499 14.4545 15.8126 14.4545H9.52692C9.18968 14.4545 8.91334 14.2045 8.91334 13.8773V12.2909C8.91334 11.8636 8.55737 11.5182 8.11708 11.5182C7.6768 11.5182 7.32083 11.8636 7.32083 12.2909V13.8773C7.32083 15.0545 8.31381 16 9.52692 16H15.8126C17.0258 16 18 15.0545 18 13.8773V2.12273C18 0.945455 17.0258 0 15.8126 0H9.52692C8.31381 0 7.32083 0.945455 7.32083 2.12273V3.74091C7.32083 4.16818 7.6768 4.51364 8.11708 4.51364Z" fill="#7C8CA6"/>
<path d="M0.30445 8.60457L3.32084 11.5318C3.47541 11.6818 3.6815 11.7591 3.8829 11.7591C4.08431 11.7591 4.2904 11.6818 4.44497 11.5318C4.7541 11.2318 4.7541 10.7409 4.44497 10.4409L2.726 8.77275H13.0211C13.4614 8.77275 13.8173 8.4273 13.8173 8.00003C13.8173 7.57275 13.4614 7.2273 13.0211 7.2273H2.55269L4.48244 5.06821C4.77283 4.74548 4.73536 4.25912 4.40281 3.9773C4.07026 3.69548 3.56909 3.73184 3.27869 4.05457L0.262295 7.4273C0.103045 7.56821 0 7.77275 0 8.00003C0 8.24548 0.117096 8.46366 0.30445 8.60457Z" fill="#7C8CA6"/>
</svg>
