<svg width="39" height="37" viewBox="0 0 39 37" fill="none" xmlns="http://www.w3.org/2000/svg">
<path d="M13.5855 22.8524C13.8869 22.8494 14.1302 22.6117 14.129 22.3215C14.1279 22.0312 13.8827 21.7986 13.5813 21.8016C13.2799 21.8047 13.0328 22.0424 13.034 22.3326C13.0351 22.6229 13.2841 22.8555 13.5855 22.8524ZM24.4964 18.5308L25.5914 18.5196C25.8928 18.5166 26.138 18.7492 26.1391 19.0395C26.1403 19.3297 25.897 19.5674 25.5956 19.5704L24.5005 19.5816C24.1991 19.5846 23.9559 19.8223 23.957 20.1125C23.9582 20.4028 24.2033 20.6354 24.5047 20.6324L25.5998 20.6212C25.9012 20.6182 26.1464 20.8545 26.1475 21.1411C26.1486 21.4313 25.9054 21.669 25.604 21.672L24.5089 21.6832C24.2075 21.6862 23.9642 21.9239 23.9654 22.2141C23.9665 22.5044 24.2117 22.737 24.5131 22.734C24.8145 22.7309 25.0635 22.9635 25.0646 23.2538C25.0658 23.544 24.8225 23.7817 24.5173 23.7848L19.9387 23.8313C19.4083 23.8367 18.8853 23.7612 18.381 23.6047L16.3141 22.9643L16.2882 16.4575C17.1461 16.2907 17.9834 15.7605 18.7355 14.8967C19.4724 14.0515 20.067 12.9395 20.3262 11.9154L20.5178 11.1639L20.6361 11.1627C21.2389 11.1566 21.733 11.6256 21.7353 12.2061L21.7374 12.7315C21.7402 13.4369 21.5167 14.795 21.2253 15.4042L20.1112 15.4155C19.8098 15.4186 19.5627 15.6562 19.5638 15.9465C19.565 16.2368 19.8139 16.4694 20.1154 16.4663L25.583 16.4107C25.8844 16.4076 26.1296 16.6403 26.1307 16.9306C26.1319 17.2208 25.8886 17.4584 25.5872 17.4615L24.4921 17.4726C24.1907 17.4757 23.9475 17.7133 23.9486 18.0036C23.9498 18.2938 24.1949 18.5338 24.4964 18.5308ZM15.2283 23.3612C15.2294 23.6514 14.9823 23.8891 14.6809 23.8921L11.949 23.9199L11.9155 15.4989L14.6474 15.4711C14.9488 15.468 15.1977 15.7006 15.1989 15.9909L15.2283 23.3612ZM26.8103 17.9782C27.0686 17.6963 27.2274 17.3272 27.2258 16.9231C27.2223 16.0523 26.4831 15.3507 25.5788 15.3599L22.3967 15.3923C22.7097 14.4668 22.8384 13.2457 22.8363 12.7203L22.8342 12.1949C22.8296 11.0339 21.8452 10.0996 20.6395 10.1119L20.0939 10.1174C19.8421 10.12 19.6252 10.2875 19.5651 10.5196L19.2721 11.669C18.8626 13.2788 17.5457 15.0632 16.1772 15.4004C15.9345 14.8187 15.3414 14.4095 14.647 14.4166L11.3695 14.4499C11.068 14.453 10.8248 14.6906 10.8259 14.9809L10.8637 24.4527C10.8648 24.743 11.1099 24.9756 11.4114 24.9726L14.6889 24.9392C15.3414 24.9326 15.9046 24.5594 16.1657 24.024L18.0454 24.6075C18.6605 24.7996 19.3019 24.8923 19.9467 24.8858L24.5253 24.8392C25.4296 24.83 26.1632 24.1134 26.1597 23.2426C26.1589 23.0369 26.1161 22.8426 26.0429 22.6633C26.7366 22.4725 27.2492 21.8537 27.2464 21.1262C27.2447 20.7221 27.083 20.3563 26.8225 20.0797C27.0808 19.7978 27.2396 19.4288 27.238 19.021C27.2326 18.6242 27.0709 18.2584 26.8103 17.9782ZM26.7864 29.2253C26.5752 28.8857 26.1169 28.7802 25.7628 28.9859C23.7566 30.1563 21.5268 30.7411 19.31 30.7637C16.0363 30.797 12.7882 29.6065 10.3331 27.2763C6.6523 23.7827 5.56684 18.5396 7.57076 13.9227C7.72956 13.5573 7.55236 13.1366 7.17019 12.9862C6.79184 12.8357 6.35373 13.0092 6.19494 13.3782C5.12117 15.8582 4.8267 18.5655 5.34854 21.2093C5.88206 23.9155 7.24259 26.3708 9.28405 28.3047C12.0264 30.9076 15.6566 32.2412 19.3157 32.2039C21.792 32.1788 24.2848 31.5251 26.5271 30.2163C26.8811 30.007 26.9976 29.5649 26.7864 29.2253ZM29.3038 27.087C29.0127 26.807 28.5434 26.8118 28.2508 27.094L28.2393 27.1052C27.9467 27.3874 27.9485 27.843 28.2396 28.1193C28.3851 28.2611 28.5762 28.3289 28.7708 28.327C28.9616 28.325 29.1521 28.2533 29.2965 28.1159L29.3079 28.1047C29.5929 27.8189 29.5949 27.3633 29.3038 27.087ZM33.1628 15.9148C32.6293 13.2086 31.2687 10.757 29.2273 8.81937C24.6272 4.45337 17.5384 3.66568 11.9843 6.90775C11.6302 7.11343 11.5175 7.55549 11.7287 7.89505C11.9399 8.23461 12.3982 8.34017 12.7523 8.13449C17.7202 5.23642 24.0646 5.93981 28.1821 9.84777C31.8628 13.3413 32.9483 18.5844 30.9444 23.2013C30.7856 23.5667 30.9628 23.9874 31.3449 24.1379C31.4405 24.1773 31.5359 24.1947 31.6351 24.1937C31.9251 24.1907 32.1992 24.0226 32.3202 23.7495C33.3939 21.2621 33.6846 18.5549 33.1628 15.9148ZM10.2756 9.00476C9.98446 8.72847 9.51132 8.72961 9.22246 9.01179L9.21106 9.02293C8.91837 9.30515 8.92019 9.76074 9.21128 10.037C9.35684 10.1788 9.54789 10.2467 9.74248 10.2447C9.93326 10.2428 10.1199 10.1711 10.2644 10.03L10.2758 10.0188C10.5646 9.73667 10.5666 9.28104 10.2756 9.00476ZM35.5037 19.2749C35.0298 20.0256 34.9189 20.9306 35.2007 21.7618L35.8494 23.6842C36.0849 24.3762 35.7941 25.1287 35.1432 25.5065L33.3654 26.5423C32.5812 26.9986 32.0462 27.7572 31.897 28.6259L31.5539 30.6135C31.427 31.3386 30.8072 31.8776 30.0481 31.9221L28.0072 32.0421C27.0916 32.0955 26.2463 32.534 25.692 33.245L24.4545 34.8339C23.9989 35.4191 23.1717 35.6222 22.4837 35.3206L20.6337 34.509C19.7966 34.1427 18.8389 34.1525 18.0048 34.5357L16.1614 35.3849C15.4796 35.7004 14.6471 35.5105 14.1869 34.9383L12.9368 33.3748C12.3769 32.675 11.5319 32.2537 10.6122 32.219L8.57053 32.1405C7.80729 32.1115 7.18323 31.5851 7.05062 30.8626L6.69169 28.8822C6.53562 28.0167 5.99463 27.2689 5.20685 26.8287L3.42094 25.8291C2.767 25.461 2.47023 24.7181 2.70021 24.0213L3.33354 22.0859C3.60875 21.249 3.49068 20.3464 3.01459 19.6053L1.90885 17.8934C1.50956 17.2765 1.60561 16.4819 2.14538 15.9657L3.62781 14.5397C4.274 13.9195 4.60636 13.06 4.53801 12.1862L4.38118 10.1743C4.32485 9.44372 4.79154 8.78129 5.52327 8.56074L7.4898 7.96755C8.36636 7.70511 9.07743 7.08796 9.43667 6.27229L10.2535 4.43053C10.5107 3.85473 11.1045 3.48494 11.7378 3.4785C11.837 3.47749 11.9401 3.48746 12.0432 3.50479L14.044 3.86289C14.949 4.0227 15.8791 3.79278 16.5942 3.2307L18.1803 1.97634C18.7661 1.51478 19.6208 1.50609 20.2102 1.9557L21.8062 3.17769C22.5257 3.72886 23.4576 3.93984 24.3612 3.75796L26.359 3.3592C27.0987 3.21205 27.8557 3.58648 28.1597 4.24842L28.9912 6.07342C29.3607 6.878 30.0728 7.48069 30.9514 7.72895L32.9225 8.28209C33.6521 8.48777 34.1279 9.14063 34.0774 9.87232L33.9366 11.8909C33.8752 12.766 34.2144 13.6187 34.8655 14.2256L36.3591 15.6214C36.903 16.1266 37.0053 16.9192 36.611 17.5441L35.5037 19.2749ZM37.8693 18.2809C38.6276 17.079 38.4308 15.5599 37.3891 14.5858L35.8954 13.1901C35.5584 12.8738 35.3811 12.431 35.4136 11.9751L35.5544 9.9565C35.6518 8.55195 34.7425 7.29357 33.3406 6.90366L31.3695 6.35053C30.9111 6.22291 30.5397 5.90703 30.3511 5.49008L29.5196 3.66508C28.9346 2.39239 27.4817 1.67232 26.0596 1.95867L24.0618 2.35744C23.5929 2.45039 23.1078 2.34142 22.7328 2.05497L21.1367 0.832976C20 -0.0336112 18.3594 -0.0169256 17.2335 0.872672L15.6473 2.12703C15.2746 2.42109 14.7905 2.53991 14.3208 2.45651L12.3238 2.09837C10.8995 1.84463 9.45254 2.5942 8.88149 3.87865L8.06464 5.72041C7.87555 6.14487 7.50671 6.46461 7.05319 6.6015L5.08666 7.19468C3.68799 7.61675 2.78875 8.88984 2.89736 10.2923L3.0542 12.3079C3.09035 12.7631 2.91661 13.2095 2.58212 13.5325L1.09969 14.9585C0.0696019 15.9537 -0.11893 17.4768 0.64893 18.6631L1.75466 20.3751C2.00422 20.762 2.06333 21.2317 1.92388 21.6667L1.2829 23.5948C0.841811 24.9368 1.41222 26.3639 2.67038 27.0676L4.45628 28.0672C4.86547 28.2982 5.14557 28.6885 5.22748 29.1359L5.58641 31.1164C5.83997 32.5063 7.0383 33.5156 8.50375 33.5742L10.5454 33.6489C11.0225 33.6661 11.4621 33.8858 11.7536 34.2502L13.0037 35.8138C13.6058 36.5682 14.5423 36.9776 15.4923 36.9679C15.9349 36.9634 16.3772 36.8671 16.7961 36.6754L18.6395 35.8263C19.0737 35.6271 19.5735 35.6221 20.0055 35.8124L21.8555 36.624C23.1742 37.2021 24.7638 36.8075 25.6407 35.6853L26.8783 34.0964C27.1668 33.7261 27.6047 33.4975 28.0816 33.4706L30.1225 33.3506C31.5873 33.2659 32.7775 32.2324 33.02 30.8337L33.3631 28.8498C33.4414 28.397 33.7184 28.0011 34.1257 27.7655L35.9035 26.7296C37.156 26.0004 37.715 24.5581 37.2632 23.2252L36.6107 21.3066C36.464 20.8745 36.5232 20.4036 36.7696 20.0116L37.8693 18.2809Z" fill="white"/>
</svg>
