<svg width="35" height="24" viewBox="0 0 35 24" fill="none" xmlns="http://www.w3.org/2000/svg">
<path d="M34.4531 23.1H0.546875C0.244453 23.1 0 22.8542 0 22.55C0 22.2459 0.244453 22 0.546875 22H34.4531C34.7555 22 35 22.2459 35 22.55C35 22.8542 34.7555 23.1 34.4531 23.1Z" fill="#0071BC"/>
<path d="M13.125 23.0999C12.8226 23.0999 12.5781 22.854 12.5781 22.5499V15.3999C12.5781 15.0957 12.8226 14.8499 13.125 14.8499C13.4274 14.8499 13.6719 15.0957 13.6719 15.3999V22.5499C13.6719 22.854 13.4274 23.0999 13.125 23.0999Z" fill="#0071BC"/>
<path d="M14.7656 23.0999C14.4632 23.0999 14.2188 22.854 14.2188 22.5499V15.3999C14.2188 15.0957 14.4632 14.8499 14.7656 14.8499C15.068 14.8499 15.3125 15.0957 15.3125 15.3999V22.5499C15.3125 22.854 15.068 23.0999 14.7656 23.0999Z" fill="#0071BC"/>
<path d="M20.2344 23.0999C19.932 23.0999 19.6875 22.854 19.6875 22.5499V15.3999C19.6875 15.0957 19.932 14.8499 20.2344 14.8499C20.5368 14.8499 20.7812 15.0957 20.7812 15.3999V22.5499C20.7812 22.854 20.5368 23.0999 20.2344 23.0999Z" fill="#0071BC"/>
<path d="M21.875 23.0999C21.5726 23.0999 21.3281 22.854 21.3281 22.5499V15.3999C21.3281 15.0957 21.5726 14.8499 21.875 14.8499C22.1774 14.8499 22.4219 15.0957 22.4219 15.3999V22.5499C22.4219 22.854 22.1774 23.0999 21.875 23.0999Z" fill="#0071BC"/>
<path d="M12.5787 15.9498C12.4021 15.9498 12.2282 15.864 12.1232 15.705L11.0294 14.055C10.8616 13.802 10.9294 13.461 11.1809 13.2922C11.4325 13.1239 11.7716 13.1915 11.9394 13.4445L13.0332 15.0945C13.2011 15.3475 13.1333 15.6885 12.8817 15.8574C12.7882 15.9195 12.6826 15.9498 12.5787 15.9498Z" fill="#0071BC"/>
<path d="M22.4219 15.9499H12.5781C12.2757 15.9499 12.0312 15.704 12.0312 15.3999C12.0312 15.0957 12.2757 14.8499 12.5781 14.8499H22.4219C22.7243 14.8499 22.9688 15.0957 22.9688 15.3999C22.9688 15.704 22.7243 15.9499 22.4219 15.9499Z" fill="#0071BC"/>
<path d="M22.4214 15.9498C22.3175 15.9498 22.2119 15.9195 22.1184 15.8574C21.8669 15.6885 21.7991 15.3475 21.9669 15.0945L23.0607 13.4445C23.228 13.1915 23.5666 13.1239 23.8192 13.2922C24.0708 13.461 24.1386 13.802 23.9707 14.055L22.8769 15.705C22.7719 15.864 22.598 15.9498 22.4214 15.9498Z" fill="#0071BC"/>
<path d="M23.5156 14.3H11.4844C11.182 14.3 10.9375 14.0541 10.9375 13.75C10.9375 13.4458 11.182 13.2 11.4844 13.2H23.5156C23.818 13.2 24.0625 13.4458 24.0625 13.75C24.0625 14.0541 23.818 14.3 23.5156 14.3Z" fill="#0071BC"/>
<path d="M6.01506 21.4499C5.75967 21.4499 5.53108 21.2695 5.47967 21.0077L4.93279 18.2577C4.87373 17.9596 5.06569 17.6703 5.36154 17.6103C5.66069 17.5476 5.94561 17.744 6.00522 18.0415L6.55209 20.7915C6.61115 21.0896 6.4192 21.3789 6.12334 21.4389C6.0867 21.4466 6.05006 21.4499 6.01506 21.4499Z" fill="#0071BC"/>
<path d="M9.84375 21.4499H6.01562C5.7132 21.4499 5.46875 21.204 5.46875 20.8999C5.46875 20.5957 5.7132 20.3499 6.01562 20.3499H9.84375C10.1462 20.3499 10.3906 20.5957 10.3906 20.8999C10.3906 21.204 10.1462 21.4499 9.84375 21.4499Z" fill="#0071BC"/>
<path d="M9.84419 21.45C9.80864 21.45 9.77255 21.4467 9.73646 21.439C9.4406 21.3796 9.2481 21.0897 9.30771 20.7916L9.85458 18.0416C9.91364 17.743 10.2018 17.5483 10.4983 17.6104C10.7941 17.6698 10.9866 17.9597 10.927 18.2578L10.3801 21.0078C10.3282 21.2696 10.0996 21.45 9.84419 21.45Z" fill="#0071BC"/>
<path d="M10.3906 18.6999H5.46875C5.16633 18.6999 4.92188 18.454 4.92188 18.1499C4.92188 17.8457 5.16633 17.5999 5.46875 17.5999H10.3906C10.693 17.5999 10.9375 17.8457 10.9375 18.1499C10.9375 18.454 10.693 18.6999 10.3906 18.6999Z" fill="#0071BC"/>
<path d="M6.5625 23.0999C6.26008 23.0999 6.01562 22.854 6.01562 22.5499V20.8999C6.01562 20.5957 6.26008 20.3499 6.5625 20.3499C6.86492 20.3499 7.10938 20.5957 7.10938 20.8999V22.5499C7.10938 22.854 6.86492 23.0999 6.5625 23.0999Z" fill="#0071BC"/>
<path d="M9.29688 23.0999C8.99445 23.0999 8.75 22.854 8.75 22.5499V20.8999C8.75 20.5957 8.99445 20.3499 9.29688 20.3499C9.5993 20.3499 9.84375 20.5957 9.84375 20.8999V22.5499C9.84375 22.854 9.5993 23.0999 9.29688 23.0999Z" fill="#0071BC"/>
<path d="M24.6094 23.1C24.5526 23.1 24.4941 23.0906 24.4366 23.0714C24.1506 22.9757 23.9953 22.6644 24.091 22.3756L24.6379 20.7256C24.7336 20.438 25.0409 20.2818 25.3297 20.378C25.6157 20.4737 25.771 20.785 25.6753 21.0738L25.1284 22.7238C25.0519 22.9542 24.8386 23.1 24.6094 23.1Z" fill="#0071BC"/>
<path d="M27.3436 23.1C27.1145 23.1 26.9012 22.9543 26.8252 22.7238L26.2783 21.0738C26.1826 20.7856 26.3374 20.4738 26.6239 20.3781C26.9121 20.2818 27.2206 20.4375 27.3157 20.7257L27.8626 22.3757C27.9583 22.6639 27.8036 22.9757 27.517 23.0714C27.459 23.0907 27.4005 23.1 27.3436 23.1Z" fill="#0071BC"/>
<path d="M27.8907 23.1C27.8338 23.1 27.7753 23.0906 27.7179 23.0714C27.4319 22.9757 27.2766 22.6644 27.3723 22.3756L27.9191 20.7256C28.0143 20.438 28.3222 20.2818 28.6109 20.378C28.8969 20.4737 29.0523 20.785 28.9566 21.0738L28.4097 22.7238C28.3331 22.9542 28.1198 23.1 27.8907 23.1Z" fill="#0071BC"/>
<path d="M30.0781 21.4499H25.1562C24.8538 21.4499 24.6094 21.204 24.6094 20.8999C24.6094 20.5957 24.8538 20.3499 25.1562 20.3499H30.0781C30.3805 20.3499 30.625 20.5957 30.625 20.8999C30.625 21.204 30.3805 21.4499 30.0781 21.4499Z" fill="#0071BC"/>
<path d="M30.6249 23.1C30.3957 23.1 30.1825 22.9543 30.1064 22.7238L29.5596 21.0738C29.4639 20.7856 29.6186 20.4738 29.9052 20.3781C30.1934 20.2818 30.5013 20.4375 30.597 20.7257L31.1439 22.3757C31.2396 22.6639 31.0848 22.9757 30.7982 23.0714C30.7403 23.0907 30.6818 23.1 30.6249 23.1Z" fill="#0071BC"/>
<path d="M26.2501 21.45C26.1932 21.45 26.1347 21.4407 26.0773 21.4214C25.7912 21.3257 25.6359 21.0144 25.7316 20.7257L26.2785 19.0757C26.3742 18.788 26.681 18.6307 26.9703 18.7281C27.2563 18.8238 27.4116 19.1351 27.3159 19.4238L26.7691 21.0738C26.6925 21.3043 26.4792 21.45 26.2501 21.45Z" fill="#0071BC"/>
<path d="M28.4375 19.7999H26.7969C26.4945 19.7999 26.25 19.5541 26.25 19.25C26.25 18.9458 26.4945 18.7 26.7969 18.7H28.4375C28.7399 18.7 28.9844 18.9458 28.9844 19.25C28.9844 19.5541 28.7399 19.7999 28.4375 19.7999Z" fill="#0071BC"/>
<path d="M28.9843 21.4498C28.7551 21.4498 28.5418 21.3041 28.4658 21.0736L27.9189 19.4236C27.8232 19.1354 27.978 18.8236 28.2646 18.7279C28.5533 18.6305 28.8607 18.7873 28.9564 19.0755L29.5032 20.7255C29.5989 21.0137 29.4442 21.3255 29.1576 21.4212C29.0996 21.4405 29.0411 21.4498 28.9843 21.4498Z" fill="#0071BC"/>
<path d="M1.64114 23.0998C1.59082 23.0998 1.54051 23.0927 1.49074 23.0789C1.20035 22.9953 1.03192 22.6906 1.11449 22.3991L4.39574 10.8491C4.47887 10.5565 4.78457 10.3915 5.07168 10.4707C5.36207 10.5543 5.53051 10.859 5.44793 11.1505L2.16668 22.7005C2.09778 22.9425 1.87903 23.0998 1.64114 23.0998Z" fill="#0071BC"/>
<path d="M9.29688 11.55H4.92188C4.61945 11.55 4.375 11.3041 4.375 11C4.375 10.6958 4.61945 10.45 4.92188 10.45H9.29688C9.5993 10.45 9.84375 10.6958 9.84375 11C9.84375 11.3041 9.5993 11.55 9.29688 11.55Z" fill="#0071BC"/>
<path d="M8.2032 11.5501C8.15125 11.5501 8.09875 11.5424 8.04625 11.527C7.75695 11.4395 7.59289 11.1326 7.67929 10.8422L9.31992 5.34222C9.40633 5.05127 9.70984 4.88682 10.0008 4.97317C10.2901 5.06062 10.4541 5.36752 10.3677 5.65792L8.72711 11.1579C8.65601 11.3966 8.4389 11.5501 8.2032 11.5501Z" fill="#0071BC"/>
<path d="M14.7656 6.04995H9.84375C9.54133 6.04995 9.29688 5.8041 9.29688 5.49995C9.29688 5.1958 9.54133 4.94995 9.84375 4.94995H14.7656C15.068 4.94995 15.3125 5.1958 15.3125 5.49995C15.3125 5.8041 15.068 6.04995 14.7656 6.04995Z" fill="#0071BC"/>
<path d="M12.0312 6.04992C11.8819 6.04992 11.7326 5.98887 11.6249 5.86787C11.4231 5.64237 11.4411 5.29422 11.6654 5.09127L17.1341 0.141267C17.3583 -0.0616828 17.7045 -0.0440826 17.9063 0.181967C18.1081 0.407467 18.0901 0.755617 17.8658 0.958567L12.3971 5.90857C12.2926 6.00317 12.1614 6.04992 12.0312 6.04992Z" fill="#0071BC"/>
<path d="M33.3588 23.0999C33.1209 23.0999 32.9022 22.9426 32.8333 22.7006L29.552 11.1506C29.4695 10.8591 29.6373 10.5544 29.9283 10.4708C30.2159 10.3916 30.5211 10.556 30.6042 10.8492L33.8855 22.3992C33.9681 22.6907 33.8002 22.9954 33.5092 23.079C33.4595 23.0927 33.4091 23.0999 33.3588 23.0999Z" fill="#0071BC"/>
<path d="M30.0781 11.55H25.1562C24.8538 11.55 24.6094 11.3041 24.6094 11C24.6094 10.6958 24.8538 10.45 25.1562 10.45H30.0781C30.3805 10.45 30.625 10.6958 30.625 11C30.625 11.3041 30.3805 11.55 30.0781 11.55Z" fill="#0071BC"/>
<path d="M26.7969 11.5501C26.5612 11.5501 26.3441 11.3966 26.273 11.1579L24.6324 5.65792C24.546 5.36752 24.7101 5.06062 24.9994 4.97317C25.2887 4.88682 25.5938 5.05127 25.6802 5.34222L27.3209 10.8422C27.4073 11.1326 27.2432 11.4395 26.9539 11.527C26.9014 11.5424 26.8489 11.5501 26.7969 11.5501Z" fill="#0071BC"/>
<path d="M25.1562 6.04995H20.2344C19.932 6.04995 19.6875 5.8041 19.6875 5.49995C19.6875 5.1958 19.932 4.94995 20.2344 4.94995H25.1562C25.4587 4.94995 25.7031 5.1958 25.7031 5.49995C25.7031 5.8041 25.4587 6.04995 25.1562 6.04995Z" fill="#0071BC"/>
<path d="M22.9687 6.04999C22.8386 6.04999 22.7073 6.00324 22.6029 5.90864L17.1341 0.958645C16.9099 0.755695 16.8918 0.407545 17.0936 0.182045C17.296 -0.0434549 17.6411 -0.0610551 17.8658 0.141345L23.3346 5.09134C23.5588 5.29429 23.5768 5.64244 23.3751 5.86794C23.2673 5.98894 23.118 6.04999 22.9687 6.04999Z" fill="#0071BC"/>
</svg>
