<svg width="29" height="23" viewBox="0 0 29 23" fill="none" xmlns="http://www.w3.org/2000/svg">
<path d="M9.46387 10.7559C10.5905 11.252 11.4693 11.9961 12.1002 12.9882C12.7312 13.9804 13.0466 15.1529 13.0466 16.5059C13.0466 18.4451 12.4382 20.0235 11.2214 21.2412C10.0047 22.4137 8.44988 23 6.55711 23C4.66434 23 3.08702 22.3912 1.82517 21.1735C0.608392 19.9559 0 18.4 0 16.5059C0 15.6039 0.112665 14.702 0.337995 13.8C0.563326 12.898 1.05905 11.5451 1.82517 9.74117L5.74592 0H12.4382L9.46387 10.7559ZM25.4172 10.7559C26.5439 11.252 27.4227 11.9961 28.0536 12.9882C28.6845 13.9804 29 15.1529 29 16.5059C29 18.4451 28.3916 20.0235 27.1748 21.2412C25.958 22.4137 24.4033 23 22.5105 23C20.6177 23 19.0404 22.3912 17.7786 21.1735C16.5618 19.9559 15.9534 18.4 15.9534 16.5059C15.9534 15.6039 16.066 14.702 16.2914 13.8C16.5167 12.898 17.0124 11.5451 17.7786 9.74117L21.6993 0H28.3916L25.4172 10.7559Z" fill="#BC080D"/>
</svg>
