<svg width="56" height="54" viewBox="0 0 56 54" fill="none" xmlns="http://www.w3.org/2000/svg">
<path d="M51.9613 1.80322C43.1149 12.0724 34.2766 22.3416 25.4302 32.6187C21.9714 28.7797 18.5125 24.9407 15.0537 21.1017C13.3322 19.1941 10.5269 22.0157 12.2324 23.9154C16.1694 28.2869 20.1144 32.6585 24.0515 37.03C24.7289 37.7851 26.1953 37.8169 26.8727 37.03C36.1733 26.2204 45.474 15.4187 54.7746 4.61691C56.4402 2.68548 53.6349 -0.144102 51.9613 1.80322Z" fill="black"/>
<path d="M48.6461 19.1226C52.0252 29.98 47.6499 41.7991 37.3052 47.0449C28.0684 51.7265 16.4406 49.4612 9.64247 41.6719C2.82839 33.8508 2.143 22.1191 8.04853 13.5906C14.9343 3.63146 28.2517 1.09596 38.676 6.92204C40.9155 8.16992 42.9239 4.74421 40.6844 3.48839C21.9237 -6.98744 -2.18454 7.43868 0.158544 29.3521C2.31833 49.5248 26.331 60.4219 42.8521 48.2769C52.344 41.2983 55.9543 29.1931 52.4954 18.0655C51.7304 15.6254 47.889 16.6666 48.6461 19.1226Z" fill="black"/>
</svg>
